v  -1.0 -1.0 1.0
v  -1.0 -1.0 -1.0
v  1.0 -1.0 -1.0
v  1.0 -1.0 1.0
v  -1.0 1.0 1.0
v  1.0 1.0 1.0
v  1.0 1.0 -1.0
v  -1.0 1.0 -1.0

vn 0.0 -1.0 -0.0
vn 0.0 1.0 -0.0
vn 0.0 0.0 1.0
vn 1.0 0.0 -0.0
vn 0.0 0.0 -1.0
vn -1.0 0.0 -0.0

vt 1.0 0.0 0.0
vt 1.0 1.0 0.0
vt 0.0 1.0 0.0
vt 0.0 0.0 0.0
vt 0.0 0.0 1.0
vt 1.0 0.0 1.0
vt 1.0 1.0 1.0
vt 0.0 1.0 1.0

f -8/-8/-6 -7/-7/-6 -6/-6/-6 
f -6/-6/-6 -5/-5/-6 -8/-8/-6 
f -4/-4/-5 -3/-3/-5 -2/-2/-5 
f -2/-2/-5 -1/-1/-5 -4/-4/-5 
f -8/-5/-4 -5/-8/-4 -3/-7/-4 
f -3/-7/-4 -4/-6/-4 -8/-5/-4 
f -5/-4/-3 -6/-3/-3 -2/-2/-3 
f -2/-2/-3 -3/-1/-3 -5/-4/-3 
f -6/-4/-2 -7/-3/-2 -1/-2/-2 
f -1/-2/-2 -2/-1/-2 -6/-4/-2 
f -7/-5/-1 -8/-8/-1 -4/-7/-1 
f -4/-7/-1 -1/-6/-1 -7/-5/-1 
